# xmcd CD database file
#
# Track frame offsets:
#	183
#	16348
#	27983
#	44020
#	59898
#	73520
#	99855
#	124745
#	136823
#	147948
#	158038
#	171608
#	210983
#
# Disc length: 2984 seconds
#
# Revision: 1
# Processed by: cddbd v1.5.2PL0 Copyright (c) Steve Scherf et al.
# Submitted via: CDex 1.51
#
DISCID=bb0ba60d
DTITLE=Brenda Lee - Coming On Strong
DYEAR=1993
DGENRE=Country
TTITLE0=Coming On Strong
TTITLE1=Silver Threads And Golden Needles
TTITLE2=Johnny One Time
TTITLE3=You're The One That I Want
TTITLE4=You Don't Have To Say You Love Me
TTITLE5=Jambalaya-It It True-My Whole World-Sweet Nothin's-End Of The World-All Alone Am I
TTITLE6=Fool No.1-Too Many Rivers-Jambalaya
TTITLE7=How Much Love
TTITLE8=That's All You Gotta Do
TTITLE9=I'm Sorry
TTITLE10=Mama Don't Dance
TTITLE11=Good Ole Acapella (Soul To Soul)-Old Landmarks-I'll Fly Away (Some Glad Morning)-Operator-Up Above My Head-Saved
TTITLE12=When You're Smiling-You Ought To Be In Pictures-Put On A Happy Face-Smile-Baby Face
EXTD=YEAR: 1993
EXTT0=
EXTT1=
EXTT2=
EXTT3=
EXTT4=
EXTT5=
EXTT6=
EXTT7=
EXTT8=
EXTT9=
EXTT10=
EXTT11=
EXTT12=
PLAYORDER=
